<svg xmlns="http://www.w3.org/2000/svg" width="375" viewBox="0 0 375 375" height="375" version="1.0"><defs><clipPath id="a"><path d="M 17.53125 0.910156 L 357.28125 0.910156 L 357.28125 342 L 17.53125 342 Z M 17.53125 0.910156"/></clipPath><clipPath id="b"><path d="M 88 246 L 287 246 L 287 374.410156 L 88 374.410156 Z M 88 246"/></clipPath></defs><g clip-path="url(#a)"><path fill="#C400FF" d="M 357.296875 171.035156 C 357.296875 264.96875 281.261719 341.109375 187.460938 341.109375 C 93.660156 341.109375 17.625 264.96875 17.625 171.035156 C 17.621094 77.101562 93.660156 0.960938 187.460938 0.960938 C 281.261719 0.960938 357.296875 77.101562 357.296875 171.035156"/></g><path fill="#0F0246" d="M 253.601562 82.527344 C 253.601562 106.90625 233.875 126.65625 209.53125 126.65625 C 185.199219 126.65625 165.464844 106.90625 165.464844 82.527344 C 165.464844 58.152344 185.199219 38.398438 209.53125 38.398438 C 233.875 38.398438 253.601562 58.152344 253.601562 82.527344"/><path fill="#0F0246" d="M 173.261719 82.527344 L 165.464844 82.527344 C 165.464844 82.527344 155.699219 214.167969 181.113281 255.859375 C 206.527344 297.554688 277.617188 296.566406 286.808594 249.460938 C 286.808594 249.460938 240.9375 268.28125 253.601562 82.527344 L 173.261719 82.527344"/><g clip-path="url(#b)"><path fill="#53CFFF" d="M 286.28125 341.574219 C 277.878906 347.855469 268.859375 353.355469 259.332031 357.957031 C 257.894531 358.664062 256.433594 359.332031 254.960938 359.996094 C 234.273438 369.285156 211.339844 374.453125 187.203125 374.453125 C 163.054688 374.453125 140.117188 369.285156 119.429688 359.996094 C 117.957031 359.335938 116.5 358.664062 115.050781 357.957031 C 105.523438 353.34375 96.515625 347.855469 88.113281 341.574219 C 89.582031 308.695312 107.035156 279.976562 132.859375 263.019531 C 148.476562 252.761719 167.140625 246.808594 187.203125 246.808594 C 190.25 246.808594 193.277344 246.949219 196.265625 247.21875 C 212.875 248.722656 228.296875 254.324219 241.53125 263.019531 C 253.417969 270.828125 263.539062 281.125 271.117188 293.167969 C 280.03125 307.300781 285.480469 323.835938 286.28125 341.574219"/></g><path fill="#FBD5C0" d="M 241.519531 263.019531 C 240.007812 274.488281 234.957031 284.851562 227.484375 292.949219 C 217.480469 303.8125 203.128906 310.625 187.203125 310.625 C 161.660156 310.625 140.203125 293.136719 134.113281 269.460938 C 133.574219 267.363281 133.152344 265.207031 132.859375 263.019531 C 148.464844 252.761719 167.128906 246.808594 187.203125 246.808594 C 190.25 246.808594 193.277344 246.9375 196.265625 247.21875 C 196.78125 247.261719 197.300781 247.316406 197.820312 247.371094 C 198.132812 247.402344 198.457031 247.4375 198.773438 247.480469 C 199.128906 247.511719 199.484375 247.566406 199.832031 247.609375 C 200.046875 247.628906 200.277344 247.664062 200.492188 247.695312 C 200.804688 247.726562 201.128906 247.78125 201.453125 247.824219 C 201.703125 247.859375 201.953125 247.902344 202.210938 247.933594 C 202.425781 247.964844 202.644531 248 202.859375 248.042969 C 203.226562 248.097656 203.59375 248.160156 203.964844 248.214844 C 205.53125 248.484375 207.109375 248.789062 208.644531 249.136719 C 209.003906 249.210938 209.347656 249.289062 209.683594 249.363281 C 209.890625 249.417969 210.085938 249.460938 210.277344 249.515625 C 210.644531 249.601562 211.023438 249.6875 211.382812 249.785156 C 211.457031 249.796875 211.511719 249.808594 211.554688 249.816406 C 212.007812 249.9375 212.472656 250.054688 212.929688 250.1875 C 213.425781 250.304688 213.914062 250.445312 214.386719 250.585938 C 214.949219 250.738281 215.492188 250.902344 216.03125 251.0625 C 216.453125 251.191406 216.875 251.324219 217.296875 251.464844 C 217.566406 251.550781 217.847656 251.636719 218.109375 251.722656 C 218.5625 251.863281 219.003906 252.015625 219.425781 252.167969 C 219.96875 252.351562 220.5 252.535156 221.027344 252.730469 C 221.070312 252.753906 221.105469 252.761719 221.136719 252.773438 C 221.6875 252.96875 222.226562 253.175781 222.769531 253.378906 C 223.167969 253.542969 223.582031 253.695312 223.992188 253.867188 C 225.074219 254.289062 226.109375 254.734375 227.148438 255.1875 L 228.511719 255.804688 C 228.921875 255.992188 229.332031 256.1875 229.746094 256.378906 C 230.121094 256.566406 230.492188 256.738281 230.859375 256.921875 C 231.203125 257.085938 231.539062 257.257812 231.886719 257.429688 C 232.101562 257.539062 232.328125 257.648438 232.546875 257.765625 C 233.433594 258.222656 234.320312 258.699219 235.171875 259.175781 C 235.496094 259.347656 235.8125 259.53125 236.113281 259.707031 C 236.328125 259.824219 236.515625 259.933594 236.707031 260.039062 L 237.445312 260.472656 C 237.691406 260.625 237.953125 260.777344 238.199219 260.929688 C 238.351562 261.027344 238.515625 261.125 238.675781 261.222656 C 239.140625 261.492188 239.597656 261.773438 240.050781 262.066406 C 240.546875 262.378906 241.035156 262.695312 241.519531 263.019531"/><path fill="#FBD5C0" d="M 206.300781 224.554688 L 206.300781 262.175781 C 206.300781 271.691406 198.523438 279.488281 189.019531 279.488281 L 185.375 279.488281 C 175.867188 279.488281 168.105469 271.691406 168.105469 262.175781 L 168.105469 224.554688 C 168.105469 215.035156 175.867188 207.25 185.375 207.25 L 189.019531 207.25 C 198.523438 207.25 206.300781 215.035156 206.300781 224.554688"/><path fill="#53CFFF" d="M 206.300781 224.554688 L 206.300781 244.457031 C 200.621094 247.621094 194.597656 249.460938 188.476562 249.460938 C 181.273438 249.460938 174.398438 247.445312 168.105469 243.949219 L 168.105469 224.554688 C 168.105469 215.035156 175.867188 207.25 185.375 207.25 L 189.019531 207.25 C 198.523438 207.25 206.300781 215.035156 206.300781 224.554688"/><path fill="#FBD5C0" d="M 246.074219 201.226562 C 246.074219 201.226562 257.386719 197.371094 264.621094 184.746094 C 272.472656 171.035156 267.539062 162.492188 265.980469 160.640625 C 261.730469 155.582031 255.167969 158.832031 254.085938 160.640625 C 253.003906 162.449219 237.347656 190.929688 246.074219 201.226562"/><path fill="#53CFFF" d="M 257.167969 165.132812 C 257.167969 165.132812 264.339844 166.054688 261.820312 176.15625 C 259.289062 186.273438 252.660156 190.269531 243.652344 195.433594 C 234.644531 200.597656 248.160156 167.191406 257.167969 165.132812"/><path fill="#FBD5C0" d="M 131.25 201.226562 C 131.25 201.226562 119.9375 197.371094 112.714844 184.746094 C 104.863281 171.035156 109.792969 162.492188 111.351562 160.640625 C 115.601562 155.582031 122.164062 158.832031 123.246094 160.640625 C 124.328125 162.449219 139.988281 190.929688 131.25 201.226562"/><path fill="#53CFFF" d="M 120.164062 165.132812 C 120.164062 165.132812 112.984375 166.054688 115.515625 176.15625 C 118.035156 186.273438 124.675781 190.269531 133.683594 195.433594 C 142.691406 200.597656 129.171875 167.191406 120.164062 165.132812"/><path fill="#FBD5C0" d="M 257.167969 158.460938 C 257.167969 116.953125 226.566406 83.296875 188.824219 83.296875 C 151.070312 83.296875 120.46875 116.953125 120.46875 158.460938 C 120.46875 199.972656 151.070312 243.363281 188.824219 243.363281 C 224.292969 243.363281 257.167969 199.625 257.167969 158.460938"/><path fill="#0F0246" d="M 194.964844 128.152344 C 194.964844 128.152344 207.835938 169.574219 256.195312 165.46875 C 256.195312 165.46875 264.628906 153.242188 261.777344 126.65625 C 258.554688 96.691406 232.058594 71.480469 188.824219 80.503906 C 188.824219 80.503906 184.875 101.804688 194.964844 128.152344"/><path fill="#0F0246" d="M 197.128906 83.296875 C 197.128906 83.296875 198.933594 75.457031 192.445312 69.316406 C 185.957031 63.175781 100.039062 75.78125 120.46875 158.460938 C 120.46875 158.460938 140.484375 109.015625 193.527344 104.683594 L 197.128906 83.296875"/></svg>